<svg width="27" height="28" viewBox="0 0 27 28" fill="none" xmlns="http://www.w3.org/2000/svg">
<path d="M11.1142 13.9047C11.1142 12.6327 12.1094 11.6012 13.3374 11.6012C14.5654 11.6012 15.5611 12.6327 15.5611 13.9047C15.5611 15.1768 14.5654 16.2083 13.3374 16.2083C12.1094 16.2083 11.1142 15.1768 11.1142 13.9047ZM9.91211 13.9047C9.91211 15.8644 11.4456 17.453 13.3374 17.453C15.2292 17.453 16.7627 15.8644 16.7627 13.9047C16.7627 11.945 15.2292 10.3565 13.3374 10.3565C11.4456 10.3565 9.91211 11.945 9.91211 13.9047ZM16.0978 10.2158C16.0978 10.3798 16.1447 10.5401 16.2326 10.6765C16.3205 10.8129 16.4455 10.9193 16.5917 10.9821C16.7379 11.0449 16.8989 11.0614 17.0542 11.0295C17.2095 10.9975 17.3521 10.9186 17.4641 10.8027C17.5761 10.6868 17.6524 10.5391 17.6834 10.3782C17.7143 10.2174 17.6985 10.0506 17.638 9.8991C17.5775 9.74756 17.4749 9.61801 17.3433 9.52684C17.2117 9.43567 17.057 9.38697 16.8986 9.38691H16.8983C16.6861 9.38701 16.4826 9.47436 16.3325 9.62978C16.1824 9.78519 16.098 9.99596 16.0978 10.2158V10.2158ZM10.6425 19.5294C9.9921 19.4987 9.63861 19.3865 9.4037 19.2917C9.09226 19.1661 8.87004 19.0165 8.63641 18.7748C8.40278 18.5331 8.25816 18.3032 8.13744 17.9805C8.04587 17.7373 7.93754 17.371 7.90797 16.6973C7.87563 15.9689 7.86918 15.7501 7.86918 13.9048C7.86918 12.0595 7.87617 11.8413 7.90797 11.1123C7.93759 10.4386 8.04672 10.073 8.13744 9.82905C8.25869 9.50643 8.4031 9.27624 8.63641 9.03422C8.86972 8.7922 9.09172 8.64239 9.4037 8.51734C9.6385 8.42248 9.9921 8.31026 10.6425 8.27963C11.3456 8.24613 11.5568 8.23944 13.3374 8.23944C15.118 8.23944 15.3294 8.24669 16.0332 8.27963C16.6835 8.31031 17.0364 8.42336 17.2719 8.51734C17.5834 8.64239 17.8056 8.79253 18.0392 9.03422C18.2729 9.27591 18.4169 9.50643 18.5382 9.82905C18.6298 10.0723 18.7381 10.4386 18.7677 11.1123C18.8 11.8413 18.8065 12.0595 18.8065 13.9048C18.8065 15.7501 18.8 15.9683 18.7677 16.6973C18.738 17.371 18.6292 17.7372 18.5382 17.9805C18.4169 18.3032 18.2725 18.5334 18.0392 18.7748C17.8059 19.0163 17.5834 19.1661 17.2719 19.2917C17.0371 19.3866 16.6835 19.4988 16.0332 19.5294C15.33 19.5629 15.1188 19.5696 13.3374 19.5696C11.556 19.5696 11.3454 19.5629 10.6425 19.5294V19.5294ZM10.5872 7.03648C9.8771 7.06998 9.39185 7.18662 8.96807 7.35744C8.5292 7.53384 8.15767 7.7705 7.78641 8.15448C7.41514 8.53846 7.18727 8.92393 7.01698 9.37856C6.85209 9.81782 6.73948 10.3202 6.70715 11.0558C6.67427 11.7926 6.66675 12.0282 6.66675 13.9047C6.66675 15.7813 6.67427 16.0169 6.70715 16.7536C6.73948 17.4893 6.85209 17.9917 7.01698 18.4309C7.18727 18.8853 7.4152 19.2712 7.78641 19.655C8.15762 20.0388 8.5292 20.2751 8.96807 20.452C9.39265 20.6229 9.8771 20.7395 10.5872 20.773C11.2989 20.8065 11.5259 20.8148 13.3374 20.8148C15.149 20.8148 15.3763 20.8071 16.0876 20.773C16.7978 20.7395 17.2827 20.6229 17.7068 20.452C18.1454 20.2751 18.5172 20.039 18.8884 19.655C19.2597 19.271 19.4871 18.8853 19.6578 18.4309C19.8227 17.9917 19.9359 17.4893 19.9677 16.7536C20 16.0163 20.0075 15.7813 20.0075 13.9047C20.0075 12.0282 20 11.7926 19.9677 11.0558C19.9353 10.3202 19.8227 9.81755 19.6578 9.37856C19.4871 8.92421 19.2591 8.53907 18.8884 8.15448C18.5177 7.76989 18.1454 7.53384 17.7073 7.35744C17.2827 7.18662 16.7977 7.06942 16.0881 7.03648C15.3769 7.00298 15.1495 6.99463 13.3379 6.99463C11.5264 6.99463 11.2989 7.00242 10.5872 7.03648Z" fill="white"/>
<path d="M11.1142 13.9047C11.1142 12.6327 12.1094 11.6012 13.3374 11.6012C14.5654 11.6012 15.5611 12.6327 15.5611 13.9047C15.5611 15.1768 14.5654 16.2083 13.3374 16.2083C12.1094 16.2083 11.1142 15.1768 11.1142 13.9047ZM9.91211 13.9047C9.91211 15.8644 11.4456 17.453 13.3374 17.453C15.2292 17.453 16.7627 15.8644 16.7627 13.9047C16.7627 11.945 15.2292 10.3565 13.3374 10.3565C11.4456 10.3565 9.91211 11.945 9.91211 13.9047ZM16.0978 10.2158C16.0978 10.3798 16.1447 10.5401 16.2326 10.6765C16.3205 10.8129 16.4455 10.9193 16.5917 10.9821C16.7379 11.0449 16.8989 11.0614 17.0542 11.0295C17.2095 10.9975 17.3521 10.9186 17.4641 10.8027C17.5761 10.6868 17.6524 10.5391 17.6834 10.3782C17.7143 10.2174 17.6985 10.0506 17.638 9.8991C17.5775 9.74756 17.4749 9.61801 17.3433 9.52684C17.2117 9.43567 17.057 9.38697 16.8986 9.38691H16.8983C16.6861 9.38701 16.4826 9.47436 16.3325 9.62978C16.1824 9.78519 16.098 9.99596 16.0978 10.2158V10.2158ZM10.6425 19.5294C9.9921 19.4987 9.63861 19.3865 9.4037 19.2917C9.09226 19.1661 8.87004 19.0165 8.63641 18.7748C8.40278 18.5331 8.25816 18.3032 8.13744 17.9805C8.04587 17.7373 7.93754 17.371 7.90797 16.6973C7.87563 15.9689 7.86918 15.7501 7.86918 13.9048C7.86918 12.0595 7.87617 11.8413 7.90797 11.1123C7.93759 10.4386 8.04672 10.073 8.13744 9.82905C8.25869 9.50643 8.4031 9.27624 8.63641 9.03422C8.86972 8.7922 9.09172 8.64239 9.4037 8.51734C9.6385 8.42248 9.9921 8.31026 10.6425 8.27963C11.3456 8.24613 11.5568 8.23944 13.3374 8.23944C15.118 8.23944 15.3294 8.24669 16.0332 8.27963C16.6835 8.31031 17.0364 8.42336 17.2719 8.51734C17.5834 8.64239 17.8056 8.79253 18.0392 9.03422C18.2729 9.27591 18.4169 9.50643 18.5382 9.82905C18.6298 10.0723 18.7381 10.4386 18.7677 11.1123C18.8 11.8413 18.8065 12.0595 18.8065 13.9048C18.8065 15.7501 18.8 15.9683 18.7677 16.6973C18.738 17.371 18.6292 17.7372 18.5382 17.9805C18.4169 18.3032 18.2725 18.5334 18.0392 18.7748C17.8059 19.0163 17.5834 19.1661 17.2719 19.2917C17.0371 19.3866 16.6835 19.4988 16.0332 19.5294C15.33 19.5629 15.1188 19.5696 13.3374 19.5696C11.556 19.5696 11.3454 19.5629 10.6425 19.5294V19.5294ZM10.5872 7.03648C9.8771 7.06998 9.39185 7.18662 8.96807 7.35744C8.5292 7.53384 8.15767 7.7705 7.78641 8.15448C7.41514 8.53846 7.18727 8.92393 7.01698 9.37856C6.85209 9.81782 6.73948 10.3202 6.70715 11.0558C6.67427 11.7926 6.66675 12.0282 6.66675 13.9047C6.66675 15.7813 6.67427 16.0169 6.70715 16.7536C6.73948 17.4893 6.85209 17.9917 7.01698 18.4309C7.18727 18.8853 7.4152 19.2712 7.78641 19.655C8.15762 20.0388 8.5292 20.2751 8.96807 20.452C9.39265 20.6229 9.8771 20.7395 10.5872 20.773C11.2989 20.8065 11.5259 20.8148 13.3374 20.8148C15.149 20.8148 15.3763 20.8071 16.0876 20.773C16.7978 20.7395 17.2827 20.6229 17.7068 20.452C18.1454 20.2751 18.5172 20.039 18.8884 19.655C19.2597 19.271 19.4871 18.8853 19.6578 18.4309C19.8227 17.9917 19.9359 17.4893 19.9677 16.7536C20 16.0163 20.0075 15.7813 20.0075 13.9047C20.0075 12.0282 20 11.7926 19.9677 11.0558C19.9353 10.3202 19.8227 9.81755 19.6578 9.37856C19.4871 8.92421 19.2591 8.53907 18.8884 8.15448C18.5177 7.76989 18.1454 7.53384 17.7073 7.35744C17.2827 7.18662 16.7977 7.06942 16.0881 7.03648C15.3769 7.00298 15.1495 6.99463 13.3379 6.99463C11.5264 6.99463 11.2989 7.00242 10.5872 7.03648Z" fill="white"/>
</svg>
