<svg width="27" height="29" viewBox="0 0 27 29" fill="none" xmlns="http://www.w3.org/2000/svg">
<path d="M10.2659 20.0818V12.6219H7.87367V20.0818H10.2661H10.2659ZM9.07026 11.6036C9.90429 11.6036 10.4235 11.0308 10.4235 10.3149C10.4079 9.58272 9.90429 9.02588 9.08612 9.02588C8.26739 9.02588 7.73267 9.58272 7.73267 10.3148C7.73267 11.0307 8.25172 11.6035 9.05459 11.6035H9.07007L9.07026 11.6036ZM11.59 20.0818H13.982V15.9163C13.982 15.6937 13.9976 15.4704 14.0608 15.3114C14.2336 14.8658 14.6272 14.4044 15.2882 14.4044C16.1536 14.4044 16.5 15.0885 16.5 16.0914V20.0818H18.8919V15.8045C18.8919 13.5133 17.7119 12.4471 16.1381 12.4471C14.8478 12.4471 14.2811 13.1946 13.9662 13.7037H13.9821V12.6222H11.5901C11.6213 13.322 11.5899 20.0821 11.5899 20.0821L11.59 20.0818Z" fill="white"/>
</svg>
