<svg id="visual" viewBox="0 0 900 600" width="900" height="600" xmlns="http://www.w3.org/2000/svg" xmlns:xlink="http://www.w3.org/1999/xlink" version="1.1"><g transform="translate(447.22591350112583 257.7011114059696)"><path d="M99.7 -110.2C135.2 -89.1 174 -63.3 193.2 -23.7C212.5 15.8 212.4 69.2 191.2 114.6C170 160 127.7 197.4 75.3 224C22.8 250.6 -39.9 266.2 -93.4 249.8C-146.9 233.3 -191.2 184.6 -200.1 133.1C-208.9 81.5 -182.3 27 -169.3 -27C-156.4 -81.1 -157.3 -134.8 -131.4 -157.5C-105.4 -180.3 -52.7 -172.1 -10.3 -159.9C32.1 -147.6 64.3 -131.3 99.7 -110.2" fill="#F5F4FF"></path></g></svg>