<svg width="377" height="238" viewBox="0 0 377 238" fill="none" xmlns="http://www.w3.org/2000/svg">
    <path d="M80.6078 97.5945L78.0427 115.579C96.6886 118.692 116.641 119.173 135.439 118.02V98.7738C117.111 100.8 98.1073 101.084 80.6078 97.5945Z" fill="#EBEDFF"/>
    <path d="M37.5633 76.5518C37.5633 76.5518 31.2794 88.0501 27.253 95.4177C47.0734 109.93 59.5623 112.493 78.0427 115.579L80.6078 97.5945C64.3894 94.3604 49.4629 87.885 37.5633 76.5518Z" fill="#CDCEDD"/>
    <path d="M27.253 95.4177C31.2794 88.0501 37.5633 76.5518 37.5633 76.5518C28.3965 67.8214 23.8193 56.6123 21.8715 43.7735L1.82086 47.1395C4.98019 66.8601 16.9299 87.8593 27.253 95.4177Z" fill="#646A9A"/>
    <path d="M135.439 118.02C158.08 116.63 179.047 112.869 194.045 108.479L187.881 89.1046C172.751 92.6914 154.459 96.6708 135.439 98.7738V118.02Z" fill="#8991E2"/>
    <path d="M202.327 85.622C197.956 86.6736 193.107 87.8657 187.881 89.1046L194.045 108.479C213.067 102.91 229.54 99.9042 243.625 99.8777V80.636C230.628 80.4298 216.739 82.1543 202.327 85.622Z" fill="#A4ADF9"/>
    <path d="M243.625 80.636V99.8777C260.643 99.8456 274.176 104.162 284.515 113.558L301.007 99.8777C285.788 87.085 266.032 80.9915 243.625 80.636Z" fill="#DEE1FF"/>
    <path d="M284.515 113.558C294.051 122.225 300.869 135.216 305.194 153.104L324.809 134.601C319.255 119.871 311.136 108.391 301.007 99.8777L284.515 113.558Z" fill="#8891E3"/>
    <path d="M324.809 134.601L305.194 153.104C308.157 165.358 310.942 179.112 315.532 191.924L336.863 174.146C332.589 160.4 329.069 145.896 324.809 134.601Z" fill="#ABB4FF"/>
    <path d="M21.8715 43.7735C19.9645 31.2044 20.5776 17.0734 21.8715 2.17683L1.82086 0C-0.116806 11.2897 -1.05243 29.2045 1.82086 47.1395L21.8715 43.7735Z" fill="#EBEDFF"/>
    <path d="M315.532 191.924C324.26 216.285 341.579 237.239 377 238V217.683C356.719 219.764 344.376 198.309 336.863 174.146L315.532 191.924Z" fill="#EBEDFF"/>
</svg>
