<svg width="424" height="233" viewBox="0 0 424 233" fill="none" xmlns="http://www.w3.org/2000/svg">
    <g opacity="0.9">
        <path id="A1" d="M422.36 41.471C418.242 59.5333 400.665 70.9291 383.101 66.9243C365.537 62.9194 354.638 45.0304 358.756 26.968C362.875 8.90571 380.452 -2.49012 398.016 1.51475C415.579 5.51962 426.479 23.4086 422.36 41.471Z" fill="#F4F5FF"/>
        <path id="A2" d="M65.7378 206.724C61.6193 224.787 43.805 236.129 25.9486 232.057C8.09215 227.985 -3.04458 210.042 1.07399 191.98C5.19257 173.918 23.0068 162.576 40.8632 166.647C58.7197 170.719 69.8564 188.662 65.7378 206.724Z" fill="#3C4592"/>
        <path id="A3" d="M374.138 86.6704C370.843 101.12 357.019 110.291 343.26 107.154C329.502 104.017 321.02 89.7597 324.315 75.3098C327.61 60.8599 341.434 51.6891 355.192 54.8263C368.95 57.9634 377.433 72.2205 374.138 86.6704Z" fill="#DADDFF"/>
        <path id="A4" d="M322.231 123.575C319.828 134.112 309.812 140.813 299.86 138.544C289.907 136.274 283.786 125.893 286.189 115.357C288.591 104.821 298.607 98.1189 308.56 100.388C318.513 102.658 324.633 113.039 322.231 123.575Z" fill="#B4BBFF"/>
        <path id="A5" d="M266.873 131.596C264.883 140.326 256.387 145.834 247.898 143.898C239.409 141.963 234.141 133.316 236.131 124.586C238.122 115.856 246.618 110.348 255.107 112.284C263.596 114.219 268.864 122.866 266.873 131.596Z" fill="#9AA3F9"/>
        <path id="A6" d="M222.416 126.046C221.249 131.164 216.269 134.393 211.293 133.258C206.317 132.123 203.228 127.055 204.395 121.937C205.562 116.819 210.542 113.59 215.519 114.725C220.495 115.86 223.583 120.928 222.416 126.046Z" fill="#848FF5"/>
        <path id="A7" d="M190.11 111.225C188.051 120.256 179.5 126.008 171.011 124.073C162.522 122.137 157.309 113.247 159.368 104.215C161.428 95.1842 169.979 89.4322 178.468 91.3679C186.957 93.3036 192.169 102.194 190.11 111.225Z" fill="#7B85E0"/>
        <path id="A8" d="M146.655 111.065C144.252 121.601 133.999 128.249 123.753 125.912C113.508 123.576 107.15 113.141 109.553 102.605C111.955 92.0682 122.208 85.4206 132.454 87.7568C142.699 90.093 149.057 100.528 146.655 111.065Z" fill="#7C85DF"/>
        <path id="A9" d="M108.339 147.054C105.112 161.203 91.581 170.184 78.1155 167.114C64.65 164.043 56.3494 150.084 59.5756 135.936C62.8019 121.787 76.3332 112.806 89.7987 115.876C103.264 118.947 111.565 132.906 108.339 147.054Z" fill="#5963B0"/>
    </g>
</svg>
