<svg width="416" height="417" viewBox="0 0 416 417" fill="none" xmlns="http://www.w3.org/2000/svg">
    <path d="M48.0293 208.529C48.0293 120.44 119.44 49.0294 207.529 49.0294C295.619 49.0294 367.029 120.44 367.029 208.529C367.029 296.619 295.619 368.029 207.529 368.029C119.44 368.029 48.0292 296.619 48.0293 208.529Z" stroke="#C6C8DC" stroke-width="2"/>
    <path d="M295.211 28.6852C322.825 28.6852 345.211 51.5709 345.211 79.1852V79.1852C345.211 106.799 322.825 129.685 295.211 129.685V129.685C267.596 129.685 245.211 106.799 245.211 79.1852V79.1852C245.211 51.571 267.596 28.6852 295.211 28.6852V28.6852Z" fill="#3C4592"/>
    <path d="M95.0428 115.845C146.368 53.5831 238.448 44.7167 300.71 96.0415C362.972 147.366 371.838 239.446 320.513 301.708C269.189 363.97 177.108 372.837 114.846 321.512C52.5843 270.187 43.718 178.107 95.0428 115.845Z" fill="#21264F" stroke="black" stroke-width="3"/>
    <path d="M57.2109 126.685C79.8546 126.685 98.2109 145.042 98.2109 167.685V167.685C98.2109 190.329 79.8546 208.685 57.2109 208.685V208.685C34.5672 208.685 16.2109 190.329 16.2109 167.685V167.685C16.2109 145.042 34.5672 126.685 57.2109 126.685V126.685Z" fill="#646A9A"/>
    <path d="M295.71 298.685C316.973 298.685 334.21 315.922 334.21 337.185V337.185C334.21 358.448 316.973 375.685 295.71 375.685L294.71 375.685C273.447 375.685 256.21 358.448 256.21 337.185V337.185C256.21 315.922 273.447 298.685 294.71 298.685L295.71 298.685Z" fill="#EBEDFF"/>
</svg>
