<svg width="344" height="341" viewBox="0 0 344 341" fill="none" xmlns="http://www.w3.org/2000/svg">
<path fill-rule="evenodd" clip-rule="evenodd" d="M290.07 31H273.929L344 101.071V84.9294L290.07 31ZM344 45.9602L329.04 31H344V45.9602ZM344 140.04L234.959 31H218.818L344 156.182V140.04ZM344 195.151L179.847 31H163.707L344 211.293V195.151ZM344 250.262L124.736 31H108.595L344 266.404V250.262ZM344 305.373L69.6257 31H53.484L344 321.515V305.373ZM324.514 341L34 50.4849V66.6269L308.373 341H324.514ZM269.403 341L34 105.596V121.738L253.262 341H269.403ZM214.292 341L34 160.707V176.849L198.151 341H214.292ZM159.181 341L34 215.818V231.96L143.04 341H159.181ZM104.07 341L34 270.929V287.071L87.9284 341H104.07ZM48.9591 341L34 326.04V341H48.9591Z" fill="#3C4592"/>
<path d="M0 0H327V327H0V0Z" fill="#EBEDFF"/>
</svg>
