<svg width="18" height="13" viewBox="0 0 18 13" fill="none" xmlns="http://www.w3.org/2000/svg">
<path fill-rule="evenodd" clip-rule="evenodd" d="M0.666748 3C0.666748 1.55025 1.78604 0.375 3.16675 0.375H11.0834C12.4641 0.375 13.5834 1.55025 13.5834 3V3.40358L16.1616 2.20041C16.4194 2.08012 16.7176 2.10492 16.9542 2.26632C17.1907 2.42772 17.3334 2.70381 17.3334 3V10C17.3334 10.2962 17.1907 10.5723 16.9542 10.7337C16.7176 10.8951 16.4194 10.9199 16.1616 10.7996L13.5834 9.59642V10C13.5834 11.4497 12.4641 12.625 11.0834 12.625H3.16675C1.78604 12.625 0.666748 11.4497 0.666748 10V3ZM7.33341 3H4.00008V4.75H7.33341V3Z" fill="#D3636A"/>
</svg>
