<svg width="16" height="16" viewBox="0 0 16 16" fill="none" xmlns="http://www.w3.org/2000/svg">
<path fill-rule="evenodd" clip-rule="evenodd" d="M9.03125 1.25001C9.03125 0.954669 8.85792 0.686823 8.58849 0.565833C8.31907 0.444844 8.00372 0.49324 7.78298 0.689456L3.77735 4.25001H0.78125C0.367036 4.25001 0.03125 4.5858 0.03125 5.00001V11C0.03125 11.4142 0.367036 11.75 0.78125 11.75H3.77735L7.78298 15.3106C8.00372 15.5068 8.31907 15.5552 8.58849 15.4342C8.85792 15.3132 9.03125 15.0454 9.03125 14.75V1.25001Z" fill="#D3636A"/>
<path fill-rule="evenodd" clip-rule="evenodd" d="M9.77183 6.65838L9.48535 6.08543L10.827 5.41461L11.1135 5.98756C11.7469 7.25443 11.7469 8.74561 11.1135 10.0125L10.827 10.5854L9.48535 9.91461L9.77183 9.34166C10.1941 8.49708 10.1941 7.50296 9.77183 6.65838Z" fill="#D3636A"/>
<path fill-rule="evenodd" clip-rule="evenodd" d="M11.8983 6.17241L11.3459 4.92964L12.7167 4.32043L13.269 5.56321C13.9585 7.1146 13.9585 8.88548 13.269 10.4369L12.7167 11.6796L11.3459 11.0704L11.8983 9.82766C12.4154 8.66412 12.4154 7.33596 11.8983 6.17241Z" fill="#D3636A"/>
<path fill-rule="evenodd" clip-rule="evenodd" d="M14.0071 5.69232L13.2139 3.78847L14.5985 3.21155L15.3918 5.11539C16.161 6.96155 16.161 9.03847 15.3918 10.8846L14.5985 12.7885L13.2139 12.2115L14.0071 10.3077C14.6225 8.83078 14.6225 7.16924 14.0071 5.69232Z" fill="#D3636A"/>
</svg>
